<svg class="icon" style="width: 1.25em; height: 1em;vertical-align: middle;fill: currentColor;overflow: hidden;" viewBox="0 0 1280 1024" version="1.1" xmlns="http://www.w3.org/2000/svg" p-id="15924"><path d="M1194.666667 1024H85.333333a85.333333 85.333333 0 0 1-85.333333-85.333333V85.333333a85.333333 85.333333 0 0 1 85.333333-85.333333h1109.333334a85.333333 85.333333 0 0 1 85.333333 85.333333v853.333334a85.333333 85.333333 0 0 1-85.333333 85.333333" fill="#E3E3E3" p-id="15925"></path><path d="M1280 938.666667V85.333333c0-13.312-3.285333-25.728-8.704-36.906666L637.312 554.965333 32.426667 155.989333 852.394667 1024H1194.666667a85.333333 85.333333 0 0 0 85.333333-85.333333" fill="#D0CFCF" p-id="15926"></path><path d="M170.666667 1024H85.333333a85.333333 85.333333 0 0 1-85.333333-85.333333V85.333333a85.333333 85.333333 0 0 1 170.666667 0v938.666667z" fill="#D54B3D" p-id="15927"></path><path d="M1194.666667 1024h-85.333334V85.333333a85.333333 85.333333 0 0 1 170.666667 0v853.333334a85.333333 85.333333 0 0 1-85.333333 85.333333" fill="#AC3D31" p-id="15928"></path><path d="M640 424.149333L1139.626667 19.2a85.674667 85.674667 0 0 1 121.429333 13.696 88.448 88.448 0 0 1-13.482667 123.136L640 648.533333 32.426667 155.989333A88.448 88.448 0 0 1 18.944 32.853333 85.674667 85.674667 0 0 1 140.373333 19.2L640 424.106667z" fill="#D54B3D" p-id="15929"></path></svg>