<svg class="icon" style="width: 1em; height: 1em;vertical-align: middle;fill: currentColor;overflow: hidden;" viewBox="0 0 1024 1024" version="1.1" xmlns="http://www.w3.org/2000/svg" p-id="14584"><path d="M512 0C227.584 0 0 227.584 0 512s227.584 512 512 512 512-227.584 512-512c0-28.416-18.944-47.36-47.36-47.36-28.48 0-47.424 18.944-47.424 47.36 0 227.584-189.632 417.216-417.216 417.216S94.784 739.584 94.784 512 284.416 94.784 512 94.784c75.84 0 161.152 19.008 218.048 66.368v9.536l-47.36 56.896c-19.008 18.944 0 56.832 28.416 56.832l218.112 9.536c18.944 0 37.888-28.48 37.888-47.424L900.736 37.888c-9.472-28.416-47.36-37.888-66.368-9.472l-37.952 56.96C711.104 28.352 616.32 0 512 0z" p-id="14585"></path></svg>