<svg class="icon" style="width: 1em; height: 1em;vertical-align: middle;fill: currentColor;overflow: hidden;" viewBox="0 0 1024 1024" version="1.1" xmlns="http://www.w3.org/2000/svg" p-id="13347"><path d="M531.2 1024C268.8 1024 51.2 806.4 51.2 544 51.2 384 134.4 230.4 268.8 140.8l6.4-6.4c6.4-6.4 12.8-6.4 19.2-6.4 25.6 0 44.8 19.2 44.8 44.8 0 19.2-12.8 32-25.6 44.8-108.8 70.4-172.8 192-172.8 320 0 211.2 172.8 384 384 384s384-172.8 384-384c0-128-64-249.6-172.8-320-12.8-6.4-25.6-25.6-25.6-44.8 0-25.6 19.2-44.8 44.8-44.8 6.4 0 12.8 0 19.2 6.4 6.4 0 6.4 0 6.4 6.4 134.4 89.6 217.6 236.8 217.6 403.2 12.8 262.4-204.8 480-467.2 480z m0-396.8c-25.6 0-44.8-25.6-44.8-51.2V44.8c0-25.6 19.2-44.8 44.8-44.8 25.6 0 44.8 19.2 44.8 44.8V576c0 25.6-19.2 51.2-44.8 51.2z" p-id="13348"></path></svg>